<svg width="163" height="26" viewBox="0 0 163 26" fill="none" xmlns="http://www.w3.org/2000/svg">
<path d="M4.96004 2.4C4.93338 2.4 4.97338 2.25334 5.08004 1.96C5.21338 1.64 5.50671 1.33334 5.96004 1.04C6.41338 0.746668 7.16004 0.586669 8.20004 0.560002C9.13338 0.533336 9.84004 0.653336 10.32 0.920002C10.8 1.16 11.12 1.4 11.28 1.64C11.4667 1.88 11.56 2 11.56 2C11.56 2 11.7067 2.34667 12 3.04C12.2934 3.73333 12.6934 4.65334 13.2 5.8C13.7067 6.92 14.2667 8.17334 14.88 9.56C15.4934 10.9467 16.1067 12.36 16.72 13.8C17.36 15.2133 17.9467 16.5467 18.48 17.8C19.04 19.0267 19.5067 20.0667 19.88 20.92C20.2534 21.7467 20.4934 22.2667 20.6 22.48C20.84 22.9867 20.9734 23.3467 21 23.56C21.0267 23.7733 21.0134 23.92 20.96 24C20.9334 24.0533 20.92 24.0933 20.92 24.12C20.7334 24.4933 20.36 24.8133 19.8 25.08C19.2667 25.3733 18.6134 25.5333 17.84 25.56C16.7734 25.5867 16 25.4667 15.52 25.2C15.04 24.96 14.72 24.7067 14.56 24.44C14.4267 24.2 14.3734 24.0933 14.4 24.12C14.4 24.12 14.2534 23.8133 13.96 23.2C13.6934 22.5867 13.3734 21.8533 13 21C12.6267 20.12 12.28 19.32 11.96 18.6C11.96 18.6 11.7734 18.6 11.4 18.6C11.0534 18.6 10.64 18.6 10.16 18.6C9.68004 18.6 9.25338 18.6 8.88004 18.6C8.53338 18.6 8.36004 18.6 8.36004 18.6C8.25338 18.9733 8.14671 19.44 8.04004 20C7.93338 20.5333 7.84004 21.0133 7.76004 21.44C7.68004 21.8667 7.64004 22.08 7.64004 22.08C7.64004 22.08 7.57338 22.24 7.44004 22.56C7.33338 22.88 7.02671 23.2 6.52004 23.52C6.01338 23.84 5.17338 24 4.00004 24C3.12004 24 2.45338 23.9067 2.00004 23.72C1.57338 23.5067 1.28004 23.2667 1.12004 23C0.986711 22.7333 0.920044 22.5067 0.920044 22.32C0.920044 22.1067 0.920044 22 0.920044 22C0.973377 21.7333 1.08004 21.1867 1.24004 20.36C1.42671 19.5067 1.64004 18.4933 1.88004 17.32C2.14671 16.12 2.41338 14.8533 2.68004 13.52C2.97338 12.1867 3.25338 10.8667 3.52004 9.56C3.78671 8.25334 4.02671 7.06667 4.24004 6C4.45338 4.90667 4.62671 4.04 4.76004 3.4C4.89338 2.73333 4.96004 2.4 4.96004 2.4ZM9.16004 8.72C9.13338 8.82667 9.10671 9.04 9.08004 9.36L8.92004 10.48C8.86671 11.0933 8.80004 11.7467 8.72004 12.44C8.64004 13.1333 8.56004 13.7867 8.48004 14.4C8.42671 14.72 8.38671 14.92 8.36004 15H8.88004C9.20004 15 9.54671 14.9867 9.92004 14.96C10.2934 14.9333 10.6267 14.92 10.92 14.92C10.8134 14.7067 10.72 14.44 10.64 14.12C10.5867 13.7733 10.52 13.4533 10.44 13.16C10.28 12.5467 10.0934 11.9067 9.88004 11.24C9.69338 10.5733 9.52004 9.94667 9.36004 9.36C9.28004 9.04 9.21338 8.82667 9.16004 8.72Z" fill="#12A7BB"/>
<path d="M37.4735 18.84C37.4735 18.84 37.4335 19.0133 37.3535 19.36C37.2735 19.7067 37.1001 20.1333 36.8335 20.64C36.5668 21.1467 36.1535 21.6667 35.5935 22.2C35.0602 22.7067 34.3268 23.1333 33.3935 23.48C32.4601 23.8267 31.2868 24 29.8735 24C28.1668 24 26.7668 23.7333 25.6735 23.2C24.6068 22.6667 23.7668 21.9467 23.1535 21.04C22.5401 20.1067 22.1001 19.08 21.8335 17.96C21.5668 16.8133 21.4068 15.6267 21.3535 14.4C21.3268 13.1733 21.3401 11.9867 21.3935 10.84C21.4468 9.66667 21.4868 8.61333 21.5135 7.68C21.5401 6.26667 21.7935 5.13334 22.2735 4.28C22.7801 3.4 23.3935 2.73334 24.1135 2.28C24.8601 1.8 25.6335 1.46667 26.4335 1.28C27.2335 1.09333 27.9535 0.986668 28.5935 0.960002C29.9001 0.880001 31.2201 1.10667 32.5535 1.64C33.8868 2.17333 34.9668 3.16 35.7935 4.6C36.2201 5.32 36.3401 5.89334 36.1535 6.32C35.9935 6.72 35.6868 7.01334 35.2335 7.2C34.8068 7.38667 34.3668 7.50667 33.9135 7.56C33.4601 7.61334 33.1668 7.64 33.0335 7.64C32.1802 7.64 31.5268 7.52 31.0735 7.28C30.6468 7.04 30.3401 6.76 30.1535 6.44C29.9935 6.09333 29.9135 5.78667 29.9135 5.52C29.9135 5.30667 29.8468 5.09334 29.7135 4.88C29.6068 4.64 29.4601 4.48 29.2735 4.4C29.1135 4.32 28.9401 4.41334 28.7535 4.68C28.5935 4.94667 28.4601 5.46667 28.3535 6.24C28.2735 6.85333 28.2201 7.66667 28.1935 8.68C28.1935 9.66667 28.2068 10.72 28.2335 11.84C28.2601 12.9333 28.2868 13.9733 28.3135 14.96C28.3668 15.9467 28.4068 16.76 28.4335 17.4C28.4868 18.0133 28.5135 18.32 28.5135 18.32C28.5135 18.32 28.5401 18.52 28.5935 18.92C28.6735 19.32 28.8201 19.72 29.0335 20.12C29.2735 20.52 29.6201 20.7333 30.0735 20.76C30.4201 20.7867 30.6868 20.68 30.8735 20.44C31.0868 20.1733 31.2335 19.88 31.3135 19.56C31.4201 19.2133 31.4868 18.92 31.5135 18.68C31.5401 18.4133 31.5535 18.28 31.5535 18.28C31.5535 18.28 31.5401 18.1733 31.5135 17.96C31.5135 17.7467 31.5801 17.5067 31.7135 17.24C31.8468 16.9467 32.1268 16.7067 32.5535 16.52C32.9801 16.3067 33.6335 16.2133 34.5135 16.24C35.3935 16.2667 36.0468 16.4133 36.4735 16.68C36.9001 16.92 37.1802 17.2133 37.3135 17.56C37.4468 17.88 37.5001 18.1733 37.4735 18.44C37.4735 18.7067 37.4735 18.84 37.4735 18.84Z" fill="#12A7BB"/>
<path d="M43.046 2.4C43.0193 2.4 43.0593 2.25334 43.166 1.96C43.2993 1.64 43.5926 1.33334 44.046 1.04C44.4993 0.746668 45.246 0.586669 46.286 0.560002C47.2193 0.533336 47.926 0.653336 48.406 0.920002C48.886 1.16 49.206 1.4 49.366 1.64C49.5527 1.88 49.646 2 49.646 2C49.646 2 49.7926 2.34667 50.086 3.04C50.3793 3.73333 50.7793 4.65334 51.286 5.8C51.7926 6.92 52.3526 8.17334 52.966 9.56C53.5793 10.9467 54.1926 12.36 54.806 13.8C55.446 15.2133 56.0326 16.5467 56.566 17.8C57.126 19.0267 57.5926 20.0667 57.966 20.92C58.3393 21.7467 58.5793 22.2667 58.686 22.48C58.926 22.9867 59.0593 23.3467 59.086 23.56C59.1126 23.7733 59.0993 23.92 59.046 24C59.0193 24.0533 59.006 24.0933 59.006 24.12C58.8193 24.4933 58.446 24.8133 57.886 25.08C57.3527 25.3733 56.6993 25.5333 55.926 25.56C54.8593 25.5867 54.086 25.4667 53.606 25.2C53.126 24.96 52.806 24.7067 52.646 24.44C52.5126 24.2 52.4593 24.0933 52.486 24.12C52.486 24.12 52.3393 23.8133 52.046 23.2C51.7793 22.5867 51.4593 21.8533 51.086 21C50.7127 20.12 50.366 19.32 50.046 18.6C50.046 18.6 49.8593 18.6 49.486 18.6C49.1393 18.6 48.726 18.6 48.246 18.6C47.766 18.6 47.3393 18.6 46.966 18.6C46.6193 18.6 46.446 18.6 46.446 18.6C46.3393 18.9733 46.2327 19.44 46.126 20C46.0193 20.5333 45.926 21.0133 45.846 21.44C45.766 21.8667 45.726 22.08 45.726 22.08C45.726 22.08 45.6593 22.24 45.526 22.56C45.4193 22.88 45.1126 23.2 44.606 23.52C44.0993 23.84 43.2593 24 42.086 24C41.206 24 40.5393 23.9067 40.086 23.72C39.6593 23.5067 39.366 23.2667 39.206 23C39.0726 22.7333 39.006 22.5067 39.006 22.32C39.006 22.1067 39.006 22 39.006 22C39.0593 21.7333 39.166 21.1867 39.326 20.36C39.5126 19.5067 39.726 18.4933 39.966 17.32C40.2326 16.12 40.4993 14.8533 40.766 13.52C41.0593 12.1867 41.3393 10.8667 41.606 9.56C41.8726 8.25334 42.1126 7.06667 42.326 6C42.5393 4.90667 42.7126 4.04 42.846 3.4C42.9793 2.73333 43.046 2.4 43.046 2.4ZM47.246 8.72C47.2193 8.82667 47.1927 9.04 47.166 9.36L47.006 10.48C46.9526 11.0933 46.886 11.7467 46.806 12.44C46.726 13.1333 46.646 13.7867 46.566 14.4C46.5126 14.72 46.4727 14.92 46.446 15H46.966C47.286 15 47.6326 14.9867 48.006 14.96C48.3793 14.9333 48.7127 14.92 49.006 14.92C48.8993 14.7067 48.806 14.44 48.726 14.12C48.6726 13.7733 48.606 13.4533 48.526 13.16C48.366 12.5467 48.1793 11.9067 47.966 11.24C47.7793 10.5733 47.606 9.94667 47.446 9.36C47.366 9.04 47.2993 8.82667 47.246 8.72Z" fill="#12A7BB"/>
<path d="M62.0104 21.4C61.9037 19.8267 61.7837 18.1867 61.6504 16.48C61.517 14.7467 61.3837 13.0933 61.2504 11.52C61.1437 9.94667 61.0504 8.61333 60.9704 7.52C60.8904 6.4 60.8237 5.68 60.7704 5.36C60.6904 4.74667 60.717 4.33333 60.8504 4.12C61.0104 3.88 61.0904 3.76 61.0904 3.76C61.0904 3.76 60.997 3.66667 60.8104 3.48C60.6237 3.26667 60.5304 3.04 60.5304 2.8C60.5304 2.37334 60.7837 2.02667 61.2904 1.76C61.8237 1.49333 62.4237 1.29333 63.0904 1.16C63.757 1.02667 64.3437 0.933335 64.8504 0.880002C65.3837 0.826668 65.6504 0.800001 65.6504 0.800001C65.6504 0.800001 65.917 0.786667 66.4504 0.760001C66.9837 0.733335 67.6637 0.760002 68.4904 0.840001C69.3437 0.920002 70.2504 1.13334 71.2104 1.48C72.197 1.8 73.1304 2.32 74.0104 3.04C74.917 3.76 75.677 4.74667 76.2904 6C76.9037 7.22667 77.277 8.8 77.4104 10.72C77.5704 12.9867 77.4637 14.8933 77.0904 16.44C76.7437 17.9867 76.2104 19.2533 75.4904 20.24C74.797 21.2 73.997 21.9467 73.0904 22.48C72.1837 23.0133 71.237 23.3867 70.2504 23.6C69.2904 23.7867 68.3704 23.9067 67.4904 23.96C66.637 23.9867 65.8904 24 65.2504 24C64.317 24 63.6104 23.8667 63.1304 23.6C62.677 23.3333 62.3704 23.04 62.2104 22.72C62.077 22.3733 62.0104 22.0667 62.0104 21.8C62.0104 21.5333 62.0104 21.4 62.0104 21.4ZM66.2904 4.4L68.0504 20.6C68.0504 20.6 68.1704 20.5867 68.4104 20.56C68.6504 20.5333 68.9437 20.4133 69.2904 20.2C69.6637 19.9867 70.0104 19.6 70.3304 19.04C70.677 18.48 70.9437 17.6933 71.1304 16.68C71.317 15.64 71.357 14.2933 71.2504 12.64C71.1437 10.56 70.917 8.94667 70.5704 7.8C70.2504 6.62667 69.8504 5.78667 69.3704 5.28C68.917 4.77333 68.4237 4.48 67.8904 4.4C67.357 4.32 66.8237 4.32 66.2904 4.4Z" fill="#12A7BB"/>
<path d="M79.2785 3.72C79.2785 3.72 79.2518 3.61333 79.1985 3.4C79.1451 3.16 79.1585 2.88 79.2385 2.56C79.3451 2.24 79.5851 1.94667 79.9585 1.68C80.3585 1.41333 80.9852 1.24 81.8385 1.16C82.6918 1.08 83.6518 1.01334 84.7185 0.960002C85.8118 0.906669 86.8518 0.853335 87.8385 0.800001C88.8518 0.746668 89.6785 0.706669 90.3185 0.680003C90.9585 0.653335 91.2785 0.64 91.2785 0.64C91.2785 0.64 91.4518 0.653335 91.7985 0.680003C92.1718 0.680003 92.5985 0.733336 93.0785 0.840001C93.5852 0.920002 94.0385 1.09334 94.4385 1.36C94.8385 1.6 95.0785 1.96 95.1585 2.44C95.2385 2.92 95.1452 3.29333 94.8785 3.56C94.6118 3.82667 94.2918 4.02667 93.9185 4.16C93.5452 4.26667 93.2118 4.33334 92.9185 4.36C92.6251 4.38667 92.4785 4.4 92.4785 4.4L86.0785 4.76C86.0785 4.76 86.1185 4.93333 86.1985 5.28C86.2785 5.62667 86.3585 6.02667 86.4385 6.48C86.5452 6.90667 86.6118 7.28 86.6385 7.6C86.6651 7.89333 86.6918 8.28 86.7185 8.76C86.7451 9.21334 86.7718 9.62667 86.7985 10C86.8251 10.3467 86.8385 10.52 86.8385 10.52H89.7985C89.7985 10.52 89.9451 10.5333 90.2385 10.56C90.5318 10.56 90.8652 10.6133 91.2385 10.72C91.6385 10.8 91.9851 10.9333 92.2785 11.12C92.5718 11.3067 92.7318 11.5867 92.7585 11.96C92.7851 12.44 92.5985 12.8 92.1985 13.04C91.8251 13.28 91.4251 13.44 90.9985 13.52C90.5985 13.5733 90.3451 13.6133 90.2385 13.64C90.1585 13.64 89.9451 13.6533 89.5985 13.68C89.2518 13.68 88.8652 13.68 88.4385 13.68C88.0385 13.68 87.6785 13.68 87.3585 13.68C87.0385 13.68 86.8785 13.68 86.8785 13.68C86.8785 13.68 86.8785 13.88 86.8785 14.28C86.9052 14.6533 86.9318 15.0933 86.9585 15.6C86.9851 16.1067 86.9851 16.5467 86.9585 16.92C86.9585 17.2667 86.9452 17.6933 86.9185 18.2C86.8918 18.68 86.8652 19.1067 86.8385 19.48C86.8118 19.8267 86.7985 20 86.7985 20L92.1985 19.8C92.1985 19.8 92.3718 19.8 92.7185 19.8C93.0651 19.7733 93.4785 19.8 93.9585 19.88C94.4385 19.96 94.8652 20.12 95.2385 20.36C95.6118 20.6 95.8118 20.96 95.8385 21.44C95.8918 21.92 95.7585 22.3067 95.4385 22.6C95.1185 22.8933 94.7451 23.1067 94.3185 23.24C93.8918 23.3733 93.5051 23.4667 93.1585 23.52C92.8385 23.5467 92.6785 23.56 92.6785 23.56L84.0385 24C84.0385 24 83.8251 24 83.3985 24C82.9985 24.0267 82.5318 24 81.9985 23.92C81.4651 23.8133 80.9985 23.6133 80.5985 23.32C80.1985 23 80.0118 22.52 80.0385 21.88C80.0918 21.0267 80.1451 19.6933 80.1985 17.88C80.2518 16.04 80.2252 13.8933 80.1185 11.44C80.0118 8.98667 79.7318 6.41334 79.2785 3.72Z" fill="#12A7BB"/>
<path d="M101.68 24C100.693 24 99.9464 23.8667 99.4397 23.6C98.9597 23.3333 98.6397 23.0267 98.4797 22.68C98.3197 22.3333 98.2397 22.0267 98.2397 21.76C98.2397 21.4933 98.2397 21.36 98.2397 21.36L97.7597 4C97.7597 4 97.7464 3.86667 97.7197 3.6C97.6931 3.33333 97.7464 3.02667 97.8797 2.68C98.0131 2.30667 98.2931 1.98667 98.7197 1.72C99.1464 1.42667 99.8131 1.28 100.72 1.28C101.92 1.25334 102.826 1.42667 103.44 1.8C104.053 2.14667 104.453 2.50667 104.64 2.88C104.853 3.22667 104.96 3.4 104.96 3.4L109.56 11.76C109.56 11.76 109.666 11.52 109.88 11.04C110.12 10.5333 110.4 9.90667 110.72 9.16C111.066 8.41334 111.413 7.65334 111.76 6.88C112.106 6.10667 112.413 5.44 112.68 4.88C112.946 4.29334 113.12 3.92 113.2 3.76C113.333 3.49333 113.573 3.13334 113.92 2.68C114.266 2.2 114.76 1.76 115.4 1.36C116.066 0.960002 116.933 0.746668 118 0.720002C118.8 0.693336 119.413 0.786669 119.84 1C120.266 1.18667 120.56 1.41333 120.72 1.68C120.906 1.94667 121.013 2.18667 121.04 2.4C121.066 2.61334 121.08 2.72 121.08 2.72C121.08 2.72 121.08 3.06667 121.08 3.76C121.08 4.42667 121.08 5.32 121.08 6.44C121.106 7.56 121.12 8.78667 121.12 10.12C121.12 11.4533 121.12 12.8 121.12 14.16C121.12 15.4933 121.12 16.72 121.12 17.84C121.146 18.96 121.16 19.8667 121.16 20.56C121.16 21.2533 121.16 21.6133 121.16 21.64C121.16 21.6667 121.146 21.8 121.12 22.04C121.12 22.28 121.026 22.56 120.84 22.88C120.653 23.1733 120.32 23.44 119.84 23.68C119.386 23.8933 118.706 24 117.8 24C116.893 24 116.2 23.9067 115.72 23.72C115.266 23.5067 114.946 23.28 114.76 23.04C114.573 22.7733 114.466 22.5467 114.44 22.36C114.413 22.1733 114.4 22.08 114.4 22.08C114.4 22.08 114.4 21.8533 114.4 21.4C114.4 20.92 114.4 20.3333 114.4 19.64C114.426 18.92 114.44 18.2133 114.44 17.52C114.466 16.8 114.48 16.2 114.48 15.72C114.48 15.24 114.48 15 114.48 15L114.8 9.28L112.72 13.72C112.72 13.72 112.64 13.8667 112.48 14.16C112.346 14.4533 112.08 14.7467 111.68 15.04C111.28 15.3333 110.68 15.4933 109.88 15.52C109.106 15.5467 108.493 15.44 108.04 15.2C107.613 14.9333 107.306 14.68 107.12 14.44C106.96 14.1733 106.88 14.04 106.88 14.04L104.28 9.28C104.28 9.28 104.293 9.6 104.32 10.24C104.373 10.8533 104.426 11.6667 104.48 12.68C104.533 13.6667 104.586 14.72 104.64 15.84C104.693 16.9333 104.733 17.9733 104.76 18.96C104.813 19.92 104.853 20.6933 104.88 21.28C104.906 22 104.76 22.56 104.44 22.96C104.12 23.3333 103.746 23.6 103.32 23.76C102.893 23.8933 102.506 23.9733 102.16 24C101.84 24 101.68 24 101.68 24Z" fill="#12A7BB"/>
<path d="M124.229 21.96C124.149 21.0533 124.096 19.92 124.069 18.56C124.043 17.1733 124.029 15.6933 124.029 14.12C124.029 12.5467 124.043 11.0267 124.069 9.56C124.123 8.06667 124.176 6.74667 124.229 5.6C124.283 4.45334 124.336 3.62667 124.389 3.12C124.469 2.48 124.696 2 125.069 1.68C125.443 1.33333 125.856 1.09334 126.309 0.960002C126.789 0.826669 127.189 0.760001 127.509 0.760001C127.856 0.733335 128.029 0.720002 128.029 0.720002C128.029 0.720002 128.189 0.746668 128.509 0.800001C128.856 0.826667 129.229 0.893334 129.629 1C130.029 1.10667 130.309 1.29333 130.469 1.56C130.816 2.09333 130.976 2.61334 130.949 3.12C130.949 3.6 130.923 4.22667 130.869 5C130.709 7 130.616 8.96 130.589 10.88C130.563 12.8 130.563 14.5467 130.589 16.12C130.616 17.6933 130.643 18.9467 130.669 19.88C130.723 20.8133 130.749 21.28 130.749 21.28C130.749 21.28 130.736 21.4267 130.709 21.72C130.709 21.9867 130.629 22.2933 130.469 22.64C130.309 22.9867 130.003 23.3067 129.549 23.6C129.096 23.8667 128.429 24 127.549 24C126.669 24 125.989 23.9067 125.509 23.72C125.056 23.5067 124.736 23.2667 124.549 23C124.389 22.7067 124.296 22.4667 124.269 22.28C124.243 22.0667 124.229 21.96 124.229 21.96Z" fill="#12A7BB"/>
<path d="M135.206 21.96C135.126 21.0533 135.073 19.92 135.046 18.56C135.019 17.1733 135.006 15.6933 135.006 14.12C135.006 12.5467 135.019 11.0267 135.046 9.56C135.099 8.06667 135.153 6.74667 135.206 5.6C135.259 4.45334 135.313 3.62667 135.366 3.12C135.446 2.48 135.673 2 136.046 1.68C136.419 1.33333 136.833 1.09334 137.286 0.960002C137.766 0.826669 138.166 0.760001 138.486 0.760001C138.833 0.733335 139.006 0.720002 139.006 0.720002C139.006 0.720002 139.166 0.746668 139.486 0.800001C139.833 0.826667 140.206 0.893334 140.606 1C141.006 1.10667 141.286 1.29333 141.446 1.56C141.793 2.09333 141.953 2.61334 141.926 3.12C141.926 3.6 141.899 4.22667 141.846 5C141.686 7 141.593 8.96 141.566 10.88C141.539 12.8 141.539 14.5467 141.566 16.12C141.593 17.6933 141.619 18.9467 141.646 19.88C141.699 20.8133 141.726 21.28 141.726 21.28C141.726 21.28 141.713 21.4267 141.686 21.72C141.686 21.9867 141.606 22.2933 141.446 22.64C141.286 22.9867 140.979 23.3067 140.526 23.6C140.073 23.8667 139.406 24 138.526 24C137.646 24 136.966 23.9067 136.486 23.72C136.033 23.5067 135.713 23.2667 135.526 23C135.366 22.7067 135.273 22.4667 135.246 22.28C135.219 22.0667 135.206 21.96 135.206 21.96Z" fill="#12A7BB"/>
<path d="M145.063 12.36C145.063 10.2267 145.436 8.28 146.183 6.52C146.929 4.73334 147.943 3.32 149.223 2.28C150.503 1.21334 151.916 0.680003 153.463 0.680003C154.609 0.680003 155.703 0.98667 156.743 1.6C157.783 2.18667 158.703 3.02667 159.503 4.12C160.303 5.18667 160.929 6.42667 161.383 7.84C161.836 9.25334 162.063 10.76 162.063 12.36C162.063 13.96 161.836 15.4667 161.383 16.88C160.929 18.2933 160.303 19.5467 159.503 20.64C158.703 21.7067 157.783 22.5467 156.743 23.16C155.703 23.7467 154.609 24.04 153.463 24.04C151.916 24.04 150.503 23.52 149.223 22.48C147.943 21.4133 146.929 20 146.183 18.24C145.436 16.48 145.063 14.52 145.063 12.36ZM151.183 12.2C151.183 13.7467 151.289 15.1733 151.503 16.48C151.716 17.76 152.009 18.7867 152.383 19.56C152.756 20.3067 153.169 20.68 153.623 20.68C154.076 20.68 154.489 20.3067 154.863 19.56C155.236 18.7867 155.529 17.76 155.743 16.48C155.956 15.1733 156.063 13.7467 156.063 12.2C156.063 10.6267 155.956 9.2 155.743 7.92C155.529 6.64 155.236 5.61333 154.863 4.84C154.489 4.06667 154.076 3.68 153.623 3.68C153.169 3.68 152.756 4.06667 152.383 4.84C152.009 5.61333 151.716 6.64 151.503 7.92C151.289 9.2 151.183 10.6267 151.183 12.2Z" fill="#12A7BB"/>
</svg>
